<svg width="30" height="18" viewBox="0 0 30 18" fill="none" xmlns="http://www.w3.org/2000/svg">
<g clip-path="url(#clip0_218_2)">
<path d="M4.46594 1.48865C3.64378 0.666493 2.3108 0.666493 1.48865 1.48865C0.666489 2.31081 0.66649 3.64378 1.48865 4.46594L13.3978 16.3751C14.22 17.1973 15.5529 17.1973 16.3751 16.3751C17.1973 15.553 17.1973 14.22 16.3751 13.3978L4.46594 1.48865Z" fill="#8C8AB6"/>
<path d="M16.5712 16.3751C15.749 17.1973 14.416 17.1973 13.5939 16.3751C12.7717 15.553 12.7717 14.22 13.5939 13.3978L25.503 1.48866C26.3252 0.666501 27.6582 0.666501 28.4803 1.48866C29.3025 2.31081 29.3025 3.64379 28.4803 4.46595L16.5712 16.3751Z" fill="#8C8AB6"/>
</g>
<defs>
<clipPath id="clip0_218_2">
<rect width="30" height="17.8947" fill="white"/>
</clipPath>
</defs>
</svg>
