<svg width="40" height="25" viewBox="0 0 40 25" fill="none" xmlns="http://www.w3.org/2000/svg">
<path d="M2.95998 1.64439L1.64443 2.95994C0.736238 3.86813 0.736238 5.34061 1.64443 6.2488L18.0888 22.6931C18.997 23.6013 20.4695 23.6013 21.3776 22.6931L22.6932 21.3776C23.6014 20.4694 23.6014 18.9969 22.6932 18.0887L6.24885 1.64439C5.34065 0.736192 3.86818 0.736192 2.95998 1.64439Z" fill="#ABA9CF"/>
<path d="M16.9934 21.4906L18.3089 22.8061C19.2171 23.7143 20.6896 23.7143 21.5978 22.8061L38.0421 6.36178C38.9503 5.45359 38.9503 3.98111 38.0421 3.07291L36.7266 1.75737C35.8184 0.84917 34.3459 0.849169 33.4377 1.75737L16.9934 18.2017C16.0852 19.1099 16.0852 20.5824 16.9934 21.4906Z" fill="#ABA9CF"/>
</svg>
