<svg width="50" height="32" viewBox="0 0 50 32" fill="none" xmlns="http://www.w3.org/2000/svg">
<g clip-path="url(#clip0_218_8)">
<path d="M4.8381 1.86075L1.86081 4.83805C0.833112 5.86574 0.833112 7.53196 1.86081 8.55966L22.3297 29.0285C23.3574 30.0562 25.0236 30.0562 26.0513 29.0285L29.0286 26.0512C30.0563 25.0236 30.0563 23.3573 29.0286 22.3296L8.55971 1.86075C7.53202 0.833058 5.86579 0.833058 4.8381 1.86075Z" fill="#C2C0E8"/>
<path d="M44.9986 2.29679L47.9759 5.27408C49.0036 6.30178 49.0036 7.968 47.9759 8.9957L27.507 29.4646C26.4793 30.4923 24.8131 30.4923 23.7854 29.4646L20.8081 26.4873C19.7804 25.4596 19.7804 23.7934 20.8081 22.7657L41.277 2.29679C42.3046 1.26909 43.9709 1.26909 44.9986 2.29679Z" fill="#C2C0E8"/>
</g>
<defs>
<clipPath id="clip0_218_8">
<rect width="50" height="31.5789" fill="white"/>
</clipPath>
</defs>
</svg>
